# xmcd CD database file
#
# Track frame offsets:
#	150
#	21752
#	40414
#	51482
#	69492
#	86750
#	105322
#	124735
#	145022
#	176359
#
# Disc length: 2520 seconds
#
# Revision: 0
# Processed by: cddbd v1.5.1PL0 Copyright (c) Steve Scherf et al.
# Submitted via: CDex 1.51
#
DISCID=8309d60a
DTITLE=Christmas Fantasy by team AUTOBACS - Christmas Fantasy
DYEAR=2001
DGENRE=Vocal
TTITLE0=This Is Christmas/LUTHER VANDROSS
TTITLE1=Christmas Without You/XSCAPE
TTITLE2=Let It Snow/NALEO
TTITLE3=All I Want Christmas Is You/MILLENIA
TTITLE4=That Specail Time Of Year/GLADYS KNIGHT and THE PIPS
TTITLE5=Merry Merry Christmas/NEW KIDS ON THE BLOCK
TTITLE6=Christmas Time Is Here/SURFACE
TTITLE7=Silent Night/JANET KAV
TTITLE8=Breath Of Heaven/GLOVER WASHINGTON Jr.
TTITLE9=10 Last Christmas/HUMAN NATURE
EXTD=YEAR: 2001
EXTT0=
EXTT1=
EXTT2=
EXTT3=
EXTT4=
EXTT5=
EXTT6=
EXTT7=
EXTT8=
EXTT9=
PLAYORDER=
